Patient4_TMGait_0pt3_02_left_06_EMG.mot
version=1
nRows=13
nColumns=33
inDegrees=no
endheader
time	1LAddLong	2LGlutMax	3LGlutMed	4LIliopsoas	5LSemiMemb	6LBicFemLong	7LRecFem	8LVastMed	9LVastLat	10LGasMed	11LTibAnt	12lTibPost	13LPeroneusLong	14LSol	15LExtDigLong	16LFlexDigLong	17RAddLong	18RGlutMax	19RGlutMed	20RIliopsoas	21RSemiMemb	22RBicFemLong	23RRecFem	24RVastMed	25RVastLat	26RGasMed	27RTibAnt	28RTibPost	29RPeroneusLong	30RSol	31RExtDigLong	32RFlexDigLong
12.835	0.005798	-0.11643	-0.065155	-0.005493	0.023041	0.083923	-0.032501	0.000763	-0.04715	-0.031281	-0.090485	0.032196	0.043945	0.1265	-0.1004	-0.008392	0.033875	0.040131	-0.013275	-0.057678	0.006409	-0.023041	-0.18249	-0.067596	0.17349	0.003204	-0.16632	-0.006409	-0.041504	0.026855	-0.000763	-0.003357
12.836	0.01358	-0.11108	-0.074158	-0.001831	0.014191	0.047607	0.011749	0.000763	-0.10605	-0.000305	-0.16998	0.020599	0.035858	0.096283	0.3302	0.007782	0.022736	0.054779	0.063324	-0.05249	-0.017395	-0.028076	-0.017395	-0.024567	0.14358	0.010529	-0.085297	-0.014038	-0.41245	0.049591	-0.005341	-0.006104
12.837	0.002136	-0.10239	-0.058289	-0.003357	0.010223	0.081635	0.012817	-0.003967	-0.033417	0.00885	-0.23331	-0.003662	0.051727	0.14099	-0.13397	-0.002289	0.011597	0.025787	-0.092773	-0.024567	-0.058594	-0.018005	0.10437	-0.092621	0.011749	0.00412	-0.075073	-0.006104	-0.38681	0.02594	-0.004425	-0.011139
12.838	0.002747	-0.063019	-0.015106	0.001984	0.005035	0.22675	0.046539	-0.002899	-0.033722	-0.014496	-0.19257	0.001221	0.011292	0.15335	0.1648	0.003967	-0.003052	0.030975	-0.083771	-0.033722	-0.030212	-0.036011	0.07431	-0.19012	-0.031128	0.007782	0.095673	-0.003662	0.01236	0.062408	-0.002289	-0.00885
12.839	0.007324	-0.061798	-0.029297	0.010376	0.001221	0.24872	0.032349	-0.003357	0.013123	-0.022278	0.057831	0.014343	0.001373	0.16769	-0.19592	0.005188	0.002136	-0.033875	-0.013123	-0.012207	0.035706	-0.035553	0.058136	-0.12741	-0.068817	0.006256	0.13992	-0.008087	0.25589	0.14389	-0.001526	-0.012207
12.84	-0.000305	-0.09201	-0.044556	0.011749	-0.000916	0.27222	0.027466	0.006104	0.054779	-0.071564	0.1915	0.018921	0.040588	0.14099	0.31418	0.004425	-0.004272	0.006714	0.08667	-0.059204	0.044708	0.050812	0.041809	-0.17242	-0.084229	0.000916	0.046387	-0.004425	0.62302	0.10147	-0.002899	-0.013428
12.841	0.00824	-0.084076	-0.063324	0.018311	0.002441	0.48935	-0.036926	0.003052	0.02243	-0.069733	0.3595	0.00473	0.016022	0.093231	0.28763	-0.011139	-0.008698	-0.020294	0.008087	-0.08606	-0.064545	0.10986	0.013275	-0.12497	-0.0354	0.000458	0.082855	-0.007477	0.47592	0.091858	-0.000458	-0.02121
12.842	0.003204	-0.081024	-0.059509	0.025177	0.008545	0.40359	-0.014343	0.000305	0.029907	-0.054626	0.22736	-0.004883	-0.0737	0.066376	0.51209	-0.013733	0.008698	0.018921	0.039673	-0.092163	-0.076141	0.076904	0.074158	-0.16327	-0.050507	0.002594	0.072937	-0.003357	-0.11246	0.074768	-0.002747	-0.018768
12.843	0.00824	-0.02533	-0.013885	0.022736	0.02594	-0.057678	0.027771	-0.004272	0.05127	-0.054321	0.055237	0.02243	-0.033875	0.093842	-0.70862	-0.01236	-0.009003	-0.003815	-0.001984	-0.11581	-0.016937	0.074463	-0.069275	-0.001221	0.050659	0.000458	-0.088196	-0.000153	-0.17014	0.024414	0.000305	-0.022278
12.844	0.007172	-0.056152	-0.00412	-0.014496	0.027924	0.074768	0.011749	-0.007782	0.049133	-0.033112	-0.01358	-0.002899	0.35233	0.066376	-0.68588	-0.004578	-0.031586	-0.03067	-0.066833	-0.21103	0.07782	0.071869	-0.16251	0.19486	0.1593	-0.000916	-0.097351	-0.005646	0.009308	0.038605	0.000763	-0.022278
12.845	0.008545	-0.061951	-0.025787	-0.010986	0.030365	0.093079	0.047913	-0.000153	0.038452	-0.033569	-0.050659	-0.005341	-0.18753	0.063171	-0.35645	-0.006866	-0.02243	0	-0.090179	-0.10071	0.075836	0.066528	-0.12146	0.13855	0.1506	-0.003662	-0.037231	0.000305	-0.015564	0.070496	0.001068	-0.019836
12.846	0.00473	-0.05127	-0.081787	-0.011292	0.02594	-0.54092	0.002441	-0.005493	0.046387	-0.030365	-0.047607	0.023499	-0.47287	0.06958	-0.13718	-0.01297	-0.012512	-0.007019	-0.15991	0.048676	0.0737	0.036011	-0.031281	0.080872	0.13931	0.001526	0.12543	-0.003204	-0.067139	0.08667	0.00061	-0.021515
12.847	-0.000916	-0.062256	-0.070038	0.012817	0.010071	-0.56534	0.01236	-0.000763	0.036163	-0.064392	-0.035706	0.005646	0.13489	0.018616	0.000916	-0.003357	-0.010071	-0.017548	-0.018616	0.21393	0.031586	0.017548	0.047913	-0.029755	0.027924	-0.002899	0.028839	-0.003052	-0.14297	0.035858	-0.002289	-0.015106
